<svg width="24" height="24" viewBox="0 0 24 24" fill="none" xmlns="http://www.w3.org/2000/svg">
  <g clip-path="url(#clip0_1141_8132)">
    <mask id="mask0_1141_8132" style="mask-type:luminance" maskUnits="userSpaceOnUse" x="0" y="0" width="24"
      height="24">
      <path d="M24 0H0V24H24V0Z" fill="white" />
    </mask>
    <g mask="url(#mask0_1141_8132)">
      <path
        d="M19.814 19.4558L19.7669 19.5187L19.7918 19.5932L19.8911 19.8911L19.5017 19.7614L19.4421 19.7416L19.3863 19.7701L18.8271 20.0545C18.2613 20.3422 17.6205 20.5051 16.9368 20.5051C14.6296 20.5051 12.7593 18.6347 12.7593 16.3276C12.7593 14.0204 14.6296 12.1501 16.9368 12.1501C19.244 12.1501 21.1143 14.0204 21.1143 16.3276C21.1143 17.2675 20.8061 18.1304 20.2844 18.8275L19.814 19.4558ZM21.741 22.4053C22.1514 22.5421 22.5419 22.1516 22.4051 21.7411L21.7722 19.8425C22.4906 18.8561 22.9143 17.6411 22.9143 16.3276C22.9143 13.0263 20.2382 10.3501 16.9368 10.3501C13.6355 10.3501 10.9593 13.0263 10.9593 16.3276C10.9593 19.6289 13.6355 22.3051 16.9368 22.3051C17.8881 22.3051 18.788 22.0828 19.5867 21.6871L21.741 22.4053Z"
        fill="#070508" stroke="#070508" stroke-width="0.2" />
      <path
        d="M4.87969 14.6773L4.90022 14.6157L4.86937 14.5586L4.56077 13.9873C4.00117 12.9513 3.68284 11.7653 3.68284 10.5001C3.68284 6.4408 6.97354 3.1501 11.0328 3.1501C15.0921 3.1501 18.3828 6.4408 18.3828 10.5001C18.3828 10.5724 18.3818 10.6444 18.3797 10.7161L18.3764 10.8329L18.4887 10.8647C18.996 11.0085 19.4744 11.2211 19.9131 11.4918L20.1183 11.6183L20.1413 11.3783C20.1687 11.0893 20.1828 10.7963 20.1828 10.5001C20.1828 5.44669 16.0862 1.3501 11.0328 1.3501C5.97943 1.3501 1.88284 5.44669 1.88284 10.5001C1.88284 12.0481 2.26739 13.5068 2.94631 14.7853L1.73345 18.4238L1.71373 18.4831L1.53581 19.0168L1.3777 19.4911C1.2409 19.9016 1.63136 20.2921 2.04178 20.1553L2.51614 19.997L3.04985 19.8191L3.10904 19.7995L6.74759 18.5866C8.02612 19.2655 9.48479 19.6501 11.0328 19.6501C11.3697 19.6501 11.7024 19.6319 12.03 19.5964L12.2697 19.5704L12.1405 19.3669C11.8639 18.9313 11.6451 18.4556 11.4947 17.9506L11.4614 17.8387L11.3447 17.8436C11.2413 17.8478 11.1373 17.8501 11.0328 17.8501C9.76757 17.8501 8.58158 17.5318 7.54567 16.9721L6.97438 16.6636L6.91726 16.6327L6.85565 16.6532L6.23968 16.8586L3.89171 17.6411L4.67437 15.2932L4.87969 14.6773Z"
        fill="#070508" />
      <path
        d="M1.73345 18.4238L2.94631 14.7853C2.26739 13.5068 1.88284 12.0481 1.88284 10.5001C1.88284 5.44669 5.97943 1.3501 11.0328 1.3501C16.0862 1.3501 20.1828 5.44669 20.1828 10.5001C20.1828 10.7963 20.1687 11.0893 20.1413 11.3783L20.1183 11.6183L19.9131 11.4918C19.4744 11.2211 18.996 11.0085 18.4887 10.8647L18.3764 10.8329L18.3797 10.7161C18.3818 10.6444 18.3828 10.5724 18.3828 10.5001C18.3828 6.4408 15.0921 3.1501 11.0328 3.1501C6.97354 3.1501 3.68284 6.4408 3.68284 10.5001C3.68284 11.7653 4.00117 12.9513 4.56077 13.9873L4.86937 14.5586L4.90022 14.6157L4.87969 14.6773L4.67437 15.2932L3.89171 17.6411L6.23968 16.8586L6.85565 16.6532L6.91726 16.6327L6.97438 16.6636L7.54567 16.9721C8.58158 17.5318 9.76757 17.8501 11.0328 17.8501C11.1373 17.8501 11.2413 17.8478 11.3447 17.8436L11.4614 17.8387L11.4947 17.9506C11.6451 18.4556 11.8639 18.9313 12.1405 19.3669L12.2697 19.5704L12.03 19.5964C11.7024 19.6319 11.3697 19.6501 11.0328 19.6501C9.48479 19.6501 8.02612 19.2655 6.74759 18.5866L3.10904 19.7995L3.04985 19.8191L2.51614 19.997L2.04178 20.1553C1.63136 20.2921 1.2409 19.9016 1.3777 19.4911M1.73345 18.4238L1.87576 18.4712M1.73345 18.4238L1.71373 18.4831L1.53581 19.0168L1.3777 19.4911M1.3777 19.4911L1.52 19.5386"
        stroke="#070508" stroke-width="0.2" />
    </g>
  </g>
  <defs>
    <clipPath id="clip0_1141_8132">
      <rect width="24" height="24" fill="white" />
    </clipPath>
  </defs>
</svg>