<svg width="130" height="120" viewBox="0 0 130 120" fill="none" xmlns="http://www.w3.org/2000/svg" xmlns:xlink="http://www.w3.org/1999/xlink">
<path fillRule="evenodd" clipRule="evenodd" d="M124.732 44.3728C120.057 34.5761 114.606 25.1665 108.429 16.2336L106.437 13.3801C103.985 9.83396 100.77 6.87673 97.0276 4.72352C93.2849 2.57029 89.1072 1.27509 84.7995 0.932039L81.3021 0.651158C70.4511 -0.217053 59.5484 -0.217053 48.6978 0.651158L45.2004 0.932039C40.8924 1.27509 36.7153 2.57029 32.9724 4.72352C29.2296 6.87673 26.0151 9.83396 23.5625 13.3801L21.5704 16.2592C15.3943 25.1921 9.94301 34.6016 5.26831 44.3983L3.76301 47.5519C1.90825 51.4414 0.945923 55.6936 0.945923 60C0.945923 64.3064 1.90825 68.5586 3.76301 72.4481L5.26831 75.6017C9.94301 85.3987 15.3943 94.8082 21.5704 103.741L23.5625 106.62C26.0151 110.166 29.2296 113.124 32.9724 115.277C36.7153 117.43 40.8924 118.725 45.2004 119.068L48.6978 119.349C59.5484 120.217 70.4511 120.217 81.3021 119.349L84.7995 119.068C89.1104 118.721 93.29 117.42 97.0328 115.259C100.776 113.099 103.989 110.135 106.437 106.582L108.429 103.703C114.606 94.7699 120.057 85.3604 124.732 75.5634L126.237 72.4098C128.091 68.5203 129.054 64.2681 129.054 59.9617C129.054 55.6553 128.091 51.4031 126.237 47.5136L124.732 44.3728Z" />
</svg>