<svg width="512" height="512" viewBox="0 0 512 512" fill="none" xmlns="http://www.w3.org/2000/svg">
  <path
    d="M0 110.277C0 49.3727 49.3727 0 110.277 0H401.723C462.627 0 512 49.3727 512 110.277V401.723C512 462.627 462.627 512 401.723 512H110.277C49.3727 512 0 462.627 0 401.723V110.277Z"
    fill="url(#paint0_linear_3866_16798)" />
  <g filter="url(#filter0_d_3866_16798)">
    <mask id="path-2-inside-1_3866_16798" fill="white">
      <path fill-rule="evenodd" clip-rule="evenodd"
        d="M266.326 114.35C299.236 116.505 331.534 130.16 356.687 155.313C381.841 180.466 395.495 212.764 397.65 245.674H305.047C283.662 245.674 266.326 228.338 266.326 206.953V114.35ZM397.593 265.035C395.263 297.656 381.628 329.621 356.687 354.562C331.534 379.715 299.236 393.369 266.326 395.524V303.756C266.326 282.371 283.662 265.035 305.047 265.035H397.593ZM246.965 395.467C214.344 393.137 182.379 379.502 157.439 354.562C132.498 329.621 118.863 297.656 116.533 265.035H208.244C229.629 265.035 246.965 282.371 246.965 303.756V395.467ZM116.476 245.674C118.631 212.764 132.285 180.466 157.439 155.313C182.379 130.372 214.344 116.737 246.965 114.407V206.953C246.965 228.338 229.629 245.674 208.244 245.674H116.476Z" />
    </mask>
    <path fill-rule="evenodd" clip-rule="evenodd"
      d="M266.326 114.35C299.236 116.505 331.534 130.16 356.687 155.313C381.841 180.466 395.495 212.764 397.65 245.674H305.047C283.662 245.674 266.326 228.338 266.326 206.953V114.35ZM397.593 265.035C395.263 297.656 381.628 329.621 356.687 354.562C331.534 379.715 299.236 393.369 266.326 395.524V303.756C266.326 282.371 283.662 265.035 305.047 265.035H397.593ZM246.965 395.467C214.344 393.137 182.379 379.502 157.439 354.562C132.498 329.621 118.863 297.656 116.533 265.035H208.244C229.629 265.035 246.965 282.371 246.965 303.756V395.467ZM116.476 245.674C118.631 212.764 132.285 180.466 157.439 155.313C182.379 130.372 214.344 116.737 246.965 114.407V206.953C246.965 228.338 229.629 245.674 208.244 245.674H116.476Z"
      fill="white" />
    <path
      d="M356.687 155.313L357.394 154.606L357.394 154.606L356.687 155.313ZM266.326 114.35H265.326L266.391 113.352L266.326 114.35ZM397.65 245.674L398.648 245.609L397.65 246.674V245.674ZM356.687 354.562L357.394 355.269L357.394 355.269L356.687 354.562ZM397.593 265.035V264.035L398.59 265.106L397.593 265.035ZM266.326 395.524L266.391 396.522L265.326 395.524H266.326ZM157.439 354.562L156.732 355.269L156.732 355.269L157.439 354.562ZM246.965 395.467H247.965L246.894 396.465L246.965 395.467ZM116.533 265.035L115.536 265.106L116.533 264.035V265.035ZM116.476 245.674V246.674L115.478 245.609L116.476 245.674ZM246.965 114.407L246.894 113.41L247.965 114.407H246.965ZM355.98 156.02C331.005 131.045 298.938 117.488 266.26 115.348L266.391 113.352C299.534 115.523 332.063 129.274 357.394 154.606L355.98 156.02ZM396.652 245.74C394.512 213.062 380.956 180.995 355.98 156.02L357.394 154.606C382.726 179.937 396.478 212.466 398.648 245.609L396.652 245.74ZM397.65 246.674H305.047V244.674H397.65V246.674ZM305.047 246.674C283.11 246.674 265.326 228.891 265.326 206.953H267.326C267.326 227.786 284.214 244.674 305.047 244.674V246.674ZM265.326 206.953V114.35H267.326V206.953H265.326ZM355.98 353.855C380.744 329.09 394.282 297.354 396.595 264.964L398.59 265.106C396.244 297.958 382.512 330.152 357.394 355.269L355.98 353.855ZM266.26 394.527C298.938 392.387 331.005 378.83 355.98 353.855L357.394 355.269C332.063 380.6 299.534 394.352 266.391 396.522L266.26 394.527ZM265.326 395.524V303.756H267.326V395.524H265.326ZM265.326 303.756C265.326 281.819 283.11 264.035 305.047 264.035V266.035C284.214 266.035 267.326 282.924 267.326 303.756H265.326ZM305.047 264.035H397.593V266.035H305.047V264.035ZM158.146 353.855C182.91 378.619 214.646 392.156 247.036 394.47L246.894 396.465C214.042 394.118 181.849 380.386 156.732 355.269L158.146 353.855ZM117.53 264.964C119.844 297.354 133.382 329.09 158.146 353.855L156.732 355.269C131.614 330.152 117.882 297.958 115.536 265.106L117.53 264.964ZM116.533 264.035H208.244V266.035H116.533V264.035ZM208.244 264.035C230.181 264.035 247.965 281.819 247.965 303.756H245.965C245.965 282.924 229.077 266.035 208.244 266.035V264.035ZM247.965 303.756V395.467H245.965V303.756H247.965ZM158.146 156.02C133.17 180.995 119.614 213.062 117.474 245.74L115.478 245.609C117.648 212.466 131.4 179.937 156.732 154.606L158.146 156.02ZM247.036 115.405C214.646 117.718 182.91 131.256 158.146 156.02L156.732 154.606C181.849 129.489 214.042 115.756 246.894 113.41L247.036 115.405ZM247.965 114.407V206.953H245.965V114.407H247.965ZM247.965 206.953C247.965 228.891 230.181 246.674 208.244 246.674V244.674C229.077 244.674 245.965 227.786 245.965 206.953H247.965ZM208.244 246.674H116.476V244.674H208.244V246.674Z"
      fill="#894D1F" fill-opacity="0.3" mask="url(#path-2-inside-1_3866_16798)" />
  </g>
  <g filter="url(#filter1_d_3866_16798)">
    <path fill-rule="evenodd" clip-rule="evenodd"
      d="M257.063 412.851C344.276 412.851 414.977 342.151 414.977 254.937C414.977 167.724 344.276 97.0232 257.063 97.0232C169.849 97.0232 99.1489 167.724 99.1489 254.937C99.1489 342.151 169.849 412.851 257.063 412.851ZM257.063 433.591C355.731 433.591 435.717 353.605 435.717 254.937C435.717 156.269 355.731 76.2833 257.063 76.2833C158.395 76.2833 78.4091 156.269 78.4091 254.937C78.4091 353.605 158.395 433.591 257.063 433.591Z"
      fill="white" />
    <path
      d="M257.063 413.351C344.553 413.351 415.477 342.427 415.477 254.937C415.477 167.448 344.553 96.5232 257.063 96.5232C169.573 96.5232 98.6489 167.448 98.6489 254.937C98.6489 342.427 169.573 413.351 257.063 413.351ZM435.217 254.937C435.217 353.329 355.455 433.091 257.063 433.091C158.671 433.091 78.9091 353.329 78.9091 254.937C78.9091 156.546 158.671 76.7833 257.063 76.7833C355.455 76.7833 435.217 156.546 435.217 254.937Z"
      stroke="#894D1F" stroke-opacity="0.3" />
  </g>
  <defs>
    <filter id="filter0_d_3866_16798" x="112.476" y="114.35" width="289.174" height="289.174"
      filterUnits="userSpaceOnUse" color-interpolation-filters="sRGB">
      <feFlood flood-opacity="0" result="BackgroundImageFix" />
      <feColorMatrix in="SourceAlpha" type="matrix" values="0 0 0 0 0 0 0 0 0 0 0 0 0 0 0 0 0 0 127 0"
        result="hardAlpha" />
      <feOffset dy="4" />
      <feGaussianBlur stdDeviation="2" />
      <feComposite in2="hardAlpha" operator="out" />
      <feColorMatrix type="matrix" values="0 0 0 0 0.891667 0 0 0 0 0.49739 0 0 0 0 0.189479 0 0 0 1 0" />
      <feBlend mode="normal" in2="BackgroundImageFix" result="effect1_dropShadow_3866_16798" />
      <feBlend mode="normal" in="SourceGraphic" in2="effect1_dropShadow_3866_16798" result="shape" />
    </filter>
    <filter id="filter1_d_3866_16798" x="74.4091" y="76.2833" width="365.308" height="365.308"
      filterUnits="userSpaceOnUse" color-interpolation-filters="sRGB">
      <feFlood flood-opacity="0" result="BackgroundImageFix" />
      <feColorMatrix in="SourceAlpha" type="matrix" values="0 0 0 0 0 0 0 0 0 0 0 0 0 0 0 0 0 0 127 0"
        result="hardAlpha" />
      <feOffset dy="4" />
      <feGaussianBlur stdDeviation="2" />
      <feComposite in2="hardAlpha" operator="out" />
      <feColorMatrix type="matrix" values="0 0 0 0 0.891667 0 0 0 0 0.49739 0 0 0 0 0.189479 0 0 0 1 0" />
      <feBlend mode="normal" in2="BackgroundImageFix" result="effect1_dropShadow_3866_16798" />
      <feBlend mode="normal" in="SourceGraphic" in2="effect1_dropShadow_3866_16798" result="shape" />
    </filter>
    <linearGradient id="paint0_linear_3866_16798" x1="256" y1="0" x2="256" y2="512" gradientUnits="userSpaceOnUse">
      <stop stop-color="#F08735" />
      <stop offset="1" stop-color="#F2A569" />
    </linearGradient>
  </defs>
</svg>