<svg width="101" height="18" viewBox="0 0 101 18" fill="none" xmlns="http://www.w3.org/2000/svg">
  <path fill-rule="evenodd" clip-rule="evenodd"
    d="M55.705 0.923096V16.6018H52.752V0.923096H55.705ZM67.7184 16.6018C69.4479 16.6018 70.749 16.1837 71.6217 15.3475C72.4944 14.5113 72.9308 13.2648 72.9308 11.6079V0.923096H70.1699V11.3988C70.1699 12.1886 69.9557 12.7963 69.5273 13.2222C69.0988 13.648 68.4324 13.8609 67.528 13.8609H64.6719C63.7357 13.8609 63.0574 13.648 62.6369 13.2222C62.2164 12.7963 62.0062 12.1886 62.0062 11.3988V0.923096H59.1501V11.6079C59.1501 14.9372 60.8796 16.6018 64.3387 16.6018H67.7184ZM88.0536 16.8586C89.1269 16.8586 89.9477 16.6041 90.5159 16.0949C91.0842 15.5858 91.5261 14.8904 91.8418 14.0089L95.7248 4.18316C95.8037 3.98558 95.9182 3.82599 96.0681 3.70441C96.2181 3.58282 96.3956 3.52203 96.6008 3.52203C96.8376 3.52203 97.031 3.60182 97.1809 3.7614C97.3309 3.92098 97.4058 4.13756 97.4058 4.41113V16.5851H100.223V4.27435C100.223 3.27125 99.9274 2.46194 99.3355 1.8464C98.7436 1.23086 97.8557 0.923096 96.6719 0.923096C95.5985 0.923096 94.7817 1.17767 94.2213 1.68682C93.661 2.19596 93.223 2.89129 92.9073 3.7728L89.0243 13.5986C88.8665 14.0241 88.5666 14.2369 88.1246 14.2369C87.8878 14.2369 87.6945 14.1571 87.5445 13.9975C87.3946 13.838 87.3196 13.629 87.3196 13.3706V4.27435C87.3196 3.27125 87.0237 2.46194 86.4317 1.8464C85.8398 1.23086 84.952 0.923096 83.7681 0.923096C82.6948 0.923096 81.8779 1.17767 81.3176 1.68682C80.7572 2.19596 80.3192 2.89129 80.0035 3.7728L75.0551 16.5851H78.0384L82.8211 4.18316C82.9 3.98558 83.0105 3.82599 83.1525 3.70441C83.2946 3.58282 83.4761 3.52203 83.6971 3.52203C83.9339 3.52203 84.1312 3.60182 84.289 3.7614C84.4468 3.92098 84.5258 4.13756 84.5258 4.41113V13.4846C84.5258 14.5029 84.8178 15.3198 85.4018 15.9353C85.9858 16.5509 86.8698 16.8586 88.0536 16.8586Z"
    fill="white" fill-opacity="0.9" />
  <path
    d="M49.498 16.6236V13.8789H43.2391C42.6021 13.8789 42.0725 13.8091 41.6505 13.6695C41.2285 13.53 40.89 13.34 40.6352 13.0997C40.3804 12.8593 40.2012 12.5724 40.0977 12.2391C39.9942 11.9057 39.9424 11.5529 39.9424 11.1807V11.1807V0.923096H37.1235V11.204C37.1235 11.9948 37.231 12.7198 37.446 13.3788C37.661 14.0378 38.0074 14.6077 38.4852 15.0884C38.963 15.5691 39.5801 15.9451 40.3366 16.2165C41.0931 16.4879 42.0049 16.6236 43.0719 16.6236V16.6236H49.498Z"
    fill="white" fill-opacity="0.9" />
  <path fill-rule="evenodd" clip-rule="evenodd"
    d="M32.405 14.693C31.1631 15.98 29.3716 16.6236 27.0303 16.6236H24.8472C22.5059 16.6236 20.7143 15.98 19.4725 14.693C18.2307 13.4059 17.6097 11.4443 17.6097 8.80821C17.6097 6.15658 18.2307 4.17949 19.4725 2.87693C20.7143 1.57437 22.5059 0.923096 24.8472 0.923096H27.0303C29.3716 0.923096 31.1631 1.57437 32.405 2.87693C33.6468 4.17949 34.2677 6.15658 34.2677 8.80821C34.2677 11.4443 33.6468 13.4059 32.405 14.693ZM24.8474 13.8788H27.0305C28.565 13.8788 29.6842 13.4795 30.3882 12.6809C31.0922 11.8823 31.4442 10.5836 31.4442 8.78486C31.4442 6.98609 31.0961 5.68354 30.4001 4.87719C29.704 4.07085 28.5808 3.66768 27.0305 3.66768H24.8474C23.2971 3.66768 22.17 4.07085 21.466 4.87719C20.762 5.68354 20.41 6.99385 20.41 8.80812C20.41 10.6069 20.7581 11.9017 21.4541 12.6925C22.1502 13.4834 23.2813 13.8788 24.8474 13.8788Z"
    fill="white" fill-opacity="0.9" />
  <path
    d="M2.79841 16.6236V10.0643H10.9802V16.6236H13.8023V0.923096H10.9802V7.31958H2.79841V0.923096H0V16.6236H2.79841Z"
    fill="white" fill-opacity="0.9" />
</svg>